<svg width="18" height="18" viewBox="0 0 18 18" fill="none" xmlns="http://www.w3.org/2000/svg">
<path fill-rule="evenodd" clip-rule="evenodd" d="M0.666626 2.33329C0.666626 1.41282 1.41282 0.666626 2.33329 0.666626H6.49996C7.42044 0.666626 8.16663 1.41282 8.16663 2.33329V6.49996C8.16663 7.42043 7.42044 8.16663 6.49996 8.16663H2.33329C1.41282 8.16663 0.666626 7.42043 0.666626 6.49996V2.33329ZM6.49996 2.33329H2.33329V6.49996H6.49996V2.33329ZM9.83329 2.33329C9.83329 1.41282 10.5795 0.666626 11.5 0.666626H15.6666C16.5871 0.666626 17.3333 1.41282 17.3333 2.33329V6.49996C17.3333 7.42043 16.5871 8.16663 15.6666 8.16663H11.5C10.5795 8.16663 9.83329 7.42043 9.83329 6.49996V2.33329ZM15.6666 2.33329H11.5V6.49996H15.6666V2.33329ZM0.666626 11.5C0.666626 10.5795 1.41282 9.83329 2.33329 9.83329H6.49996C7.42044 9.83329 8.16663 10.5795 8.16663 11.5V15.6666C8.16663 16.5871 7.42044 17.3333 6.49996 17.3333H2.33329C1.41282 17.3333 0.666626 16.5871 0.666626 15.6666V11.5ZM6.49996 11.5H2.33329V15.6666H6.49996V11.5ZM9.83329 11.5C9.83329 10.5795 10.5795 9.83329 11.5 9.83329H15.6666C16.5871 9.83329 17.3333 10.5795 17.3333 11.5V15.6666C17.3333 16.5871 16.5871 17.3333 15.6666 17.3333H11.5C10.5795 17.3333 9.83329 16.5871 9.83329 15.6666V11.5ZM15.6666 11.5H11.5V15.6666H15.6666V11.5Z" fill="#E30614"/>
</svg>
