<svg width="21" height="21" viewBox="0 0 21 21" fill="none" xmlns="http://www.w3.org/2000/svg">
<path d="M19.3723 3.53338C19.5308 3.91908 19.625 4.33448 19.625 4.77083C19.625 6.64318 18.1015 8.16666 16.2292 8.16666C15.8349 8.16666 15.4574 8.08975 15.1057 7.96277L14.9564 7.90886L14.8441 8.02106L3.16674 19.6882L1.31189 17.8333L8.85386 10.2914L9.03064 10.1146L8.85386 9.9378L6.99969 8.08364L6.82292 7.90686L6.64614 8.08364L6.08333 8.64644L4.79136 7.35447L4.36458 6.92769V6.93811L4.04136 6.61489L2.74939 5.32291L6.26 1.8123C6.26003 1.81227 6.26006 1.81224 6.26009 1.81221C6.79915 1.27387 7.52983 0.971497 8.29167 0.971497C8.96971 0.971497 9.62308 1.21101 10.1386 1.64323L8.11489 3.66697L7.93811 3.84375L8.11489 4.02052L9.40686 5.3125L8.84406 5.8753L8.66728 6.05208L8.84406 6.22886L10.6982 8.08302L10.875 8.2598L11.0518 8.08302L12.9789 6.15594L13.0912 6.04363L13.0372 5.89425C12.9103 5.54264 12.8333 5.16514 12.8333 4.77083C12.8333 2.89848 14.3568 1.375 16.2292 1.375C16.6655 1.375 17.0809 1.46918 17.4666 1.62774L14.9066 4.1878L14.7298 4.36458L14.9066 4.54136L16.4586 6.09344L16.6354 6.27022L16.8122 6.09344L19.3723 3.53338ZM4.36458 10.3756L3.875 10.8652L0.541054 7.53125L1.03064 7.04166H3.86458H4.36458V7.53125V10.3756ZM12.7108 13.8042L14.5667 11.9483L20.4589 17.8406L18.6031 19.6964L12.7108 13.8042Z" fill="#A7A7A7" stroke="white" stroke-width="0.5"/>
</svg>
