<svg width="19" height="21" viewBox="0 0 19 21" fill="none" xmlns="http://www.w3.org/2000/svg">
<path d="M17.925 9.54049V9.54165V18.1667C17.925 18.6219 17.7441 19.0586 17.4222 19.3805C17.1003 19.7025 16.6636 19.8833 16.2083 19.8833H2.79167C2.33638 19.8833 1.89974 19.7025 1.5778 19.3805L1.4373 19.521L1.5778 19.3805C1.25586 19.0586 1.075 18.6219 1.075 18.1667V9.54209C1.07547 9.44189 1.09579 9.34278 1.13479 9.25048L0.951391 9.17298L1.13479 9.25048C1.17384 9.15805 1.23085 9.0743 1.3025 9.00407L1.30251 9.00407L1.30392 9.00266L8.97017 1.33641C8.97024 1.33634 8.97031 1.33627 8.97038 1.3362C9.11245 1.19509 9.30455 1.11589 9.50479 1.11589C9.70503 1.11589 9.89714 1.19509 10.0392 1.3362C10.0393 1.33627 10.0393 1.33634 10.0394 1.33641L17.7051 9.00208C17.7052 9.00222 17.7054 9.00237 17.7055 9.00251C17.7756 9.07328 17.8311 9.15716 17.8687 9.24936C17.9065 9.34176 17.9256 9.4407 17.925 9.54049ZM18.125 18.1667V9.54165H0.875V18.1667C0.875 18.675 1.07693 19.1625 1.43638 19.5219C1.79582 19.8814 2.28334 20.0833 2.79167 20.0833H16.2083C16.7167 20.0833 17.2042 19.8814 17.5636 19.5219C17.9231 19.1625 18.125 18.675 18.125 18.1667ZM7.38333 18.1667V18.3667H7.58333H11.4167H11.6167V18.1667V13.375V13.175H11.4167H7.58333H7.38333V13.375V18.1667ZM2.65025 9.79315L2.59167 9.85173V9.93457V18.1667V18.3667H2.79167H5.66667H5.86667V18.1667V13.375C5.86667 12.9197 6.04753 12.4831 6.36947 12.1611C6.6914 11.8392 7.12805 11.6583 7.58333 11.6583H11.4167C11.872 11.6583 12.3086 11.8392 12.6305 12.1611C12.9525 12.4831 13.1333 12.9197 13.1333 13.375V18.1667V18.3667H13.3333H16.2083H16.4083V18.1667V9.93457V9.85173L16.3498 9.79315L9.64142 3.08482L9.5 2.94339L9.35858 3.08482L2.65025 9.79315Z" fill="#A7A7A7" stroke="white" stroke-width="0.4"/>
</svg>
