<svg width="14" height="20" viewBox="0 0 14 20" fill="none" xmlns="http://www.w3.org/2000/svg">
<path d="M2.25 19V18.75H2C1.53587 18.75 1.09075 18.5656 0.762563 18.2374C0.434374 17.9092 0.25 17.4641 0.25 17V2C0.25 1.03807 1.03807 0.25 2 0.25H12C12.4641 0.25 12.9092 0.434374 13.2374 0.762563C13.5656 1.09075 13.75 1.53587 13.75 2V17C13.75 17.9719 12.9719 18.75 12 18.75H11.75V19V19.75H10.25V19V18.75H10H4H3.75V19V19.75H2.25V19ZM2 1.75H1.75V2V5V5.25H2H12H12.25V5V2V1.75H12H2ZM2 6.75H1.75V7V10V10.25H2H12H12.25V10V7V6.75H12H2ZM2 11.75H1.75V12V17V17.25H2H6H6.25V17V12V11.75H6H2ZM8 11.75H7.75V12V17V17.25H8H12H12.25V17V12V11.75H12H8ZM4.75 15.75H3.25V13.25H4.75V15.75ZM10.75 15.75H9.25V13.25H10.75V15.75Z" fill="#A7A7A7" stroke="white" stroke-width="0.5"/>
</svg>
