<svg width="16" height="21" viewBox="0 0 16 21" fill="none" xmlns="http://www.w3.org/2000/svg">
<path d="M5.97148 20.499L5.97087 20.4985C5.7788 20.3491 5.66634 20.1189 5.66634 19.875V18.8333V18.5833H5.41634H1.24967C1.03971 18.5833 0.838348 18.4999 0.689882 18.3514C0.541415 18.203 0.458008 18.0016 0.458008 17.7917V3.20832C0.458008 2.99836 0.541415 2.79699 0.689882 2.64853C0.838348 2.50006 1.03971 2.41665 1.24967 2.41665H5.41634H5.66634V2.16665V1.12557C5.6669 1.00551 5.69465 0.88713 5.74752 0.779325C5.80045 0.671389 5.87717 0.576867 5.97191 0.502873C6.06666 0.428878 6.17695 0.377339 6.29449 0.352136C6.41187 0.326969 6.53342 0.328717 6.65001 0.357245C6.65018 0.357286 6.65035 0.357327 6.65052 0.357368L14.9828 2.44044L14.9829 2.44047C15.1543 2.48321 15.3064 2.582 15.4151 2.72115C15.5239 2.86027 15.5829 3.03175 15.583 3.20832C15.583 3.20834 15.583 3.20837 15.583 3.20839V17.7917V17.7918C15.5831 17.9684 15.5241 18.1399 15.4154 18.279C15.3066 18.4181 15.1545 18.5169 14.9831 18.5595L14.9828 18.5595L6.64946 20.6429L6.64929 20.6429C6.53281 20.6721 6.4112 20.6743 6.29373 20.6494C6.17626 20.6244 6.06604 20.573 5.97148 20.499ZM7.56031 2.21683L7.24967 2.13917V2.45936V18.5406V18.8608L7.56031 18.7831L13.8103 17.2206L13.9997 17.1733V16.9781V4.02186V3.82667L13.8103 3.77933L7.56031 2.21683ZM2.04134 16.75V17H2.29134H5.41634H5.66634V16.75V4.24999V3.99999H5.41634H2.29134H2.04134V4.24999V16.75Z" fill="white" stroke="#A7A7A7" stroke-width="0.5"/>
</svg>
